<svg width="217" height="18" viewBox="0 0 217 18" fill="none" xmlns="http://www.w3.org/2000/svg">
<path d="M10.0707 2.88683V17H7.81074V2.88683H0.638857V0.857491H17.2656V2.88683H10.0707ZM18.4127 8.76732C18.4589 7.30681 18.7125 6.04615 19.1737 4.98536C19.6503 3.92457 20.296 3.05595 21.1108 2.3795C21.941 1.68768 22.9173 1.18034 24.0396 0.857491C25.1772 0.519266 26.4379 0.350154 27.8215 0.350154C29.2052 0.350154 30.4581 0.526953 31.5804 0.880551C32.7181 1.21878 33.6943 1.7338 34.5091 2.42562C35.3393 3.11744 35.985 3.99375 36.4462 5.05454C36.9228 6.09996 37.1842 7.33756 37.2303 8.76732V9.18241C37.1842 10.6122 36.9228 11.8575 36.4462 12.9183C35.985 13.9637 35.3393 14.8246 34.5091 15.5011C33.6943 16.1775 32.7181 16.6771 31.5804 17C30.4581 17.3382 29.2052 17.5073 27.8215 17.5073C26.4379 17.5073 25.1772 17.3382 24.0396 17C22.9173 16.6771 21.941 16.1775 21.1108 15.5011C20.296 14.8092 19.6503 13.9406 19.1737 12.8952C18.7125 11.8498 18.4589 10.6122 18.4127 9.18241V8.76732ZM27.8215 2.3795C26.7607 2.3795 25.7922 2.51786 24.9159 2.79459C24.0549 3.07132 23.317 3.48641 22.702 4.03987C22.1024 4.57796 21.6335 5.26209 21.2953 6.09228C20.9725 6.90709 20.811 7.86795 20.811 8.97487C20.811 10.0357 20.9725 10.9735 21.2953 11.7883C21.6335 12.5877 22.1024 13.2642 22.702 13.8176C23.317 14.3557 24.0549 14.7708 24.9159 15.0629C25.7922 15.3396 26.7607 15.478 27.8215 15.478C28.8823 15.478 29.8432 15.3396 30.7041 15.0629C31.5804 14.7862 32.3184 14.3788 32.9179 13.8407C33.5329 13.2872 34.0018 12.6108 34.3246 11.8113C34.6629 10.9965 34.832 10.051 34.832 8.97487C34.832 7.91407 34.6629 6.97627 34.3246 6.16146C34.0018 5.34665 33.5329 4.66251 32.9179 4.10905C32.3184 3.54022 31.5804 3.10976 30.7041 2.81765C29.8432 2.52555 28.8823 2.3795 27.8215 2.3795ZM47.8146 2.88683V17H45.5547V2.88683H38.3828V0.857491H55.0096V2.88683H47.8146ZM60.6074 12.1111L58.2091 17H55.6954L63.6514 0.857491H67.4795L75.4354 17H72.8987L70.5004 12.1111H60.6074ZM61.6221 10.0818H69.4858L65.5654 2.10277L61.6221 10.0818ZM90.9778 14.9707V17H77.2797V0.857491H79.5397V14.9707H90.9778ZM97.3042 13.6562V17.4151H93.5222V13.6562H97.3042ZM117.695 12.2956C117.695 13.9714 117.165 15.1782 116.104 15.9161C115.058 16.6387 113.521 17 111.492 17H100.768V0.857491H110.846C111.753 0.857491 112.568 0.918986 113.29 1.04198C114.028 1.14959 114.659 1.35714 115.181 1.66462C115.704 1.95672 116.104 2.35644 116.38 2.86377C116.673 3.35574 116.819 3.99375 116.819 4.77781C116.819 5.608 116.642 6.29214 116.288 6.83022C115.935 7.35293 115.481 7.77571 114.928 8.09856C115.835 8.42141 116.519 8.90568 116.98 9.55139C117.457 10.1817 117.695 11.0965 117.695 12.2956ZM103.028 7.29143H110.638C111.299 7.29143 111.868 7.26069 112.345 7.19919C112.821 7.1377 113.206 7.02239 113.498 6.85328C113.805 6.68417 114.028 6.45356 114.167 6.16146C114.32 5.85398 114.397 5.46964 114.397 5.00842C114.397 4.54721 114.313 4.17824 114.144 3.90151C113.99 3.6094 113.752 3.39417 113.429 3.25581C113.121 3.10207 112.729 3.00214 112.253 2.95602C111.776 2.9099 111.223 2.88683 110.592 2.88683H103.028V7.29143ZM103.028 14.9707H111.492C112.276 14.9707 112.914 14.9092 113.406 14.7862C113.898 14.6478 114.274 14.4556 114.536 14.2097C114.812 13.9483 114.997 13.6408 115.089 13.2872C115.197 12.9336 115.25 12.5416 115.25 12.1111C115.25 11.6653 115.204 11.2733 115.112 10.935C115.02 10.5968 114.835 10.3047 114.559 10.0587C114.282 9.81274 113.89 9.62825 113.383 9.50526C112.891 9.38227 112.237 9.32078 111.422 9.32078H103.028V14.9707ZM133.924 14.9707V17H120.226V0.857491H122.486V14.9707H133.924ZM139.766 12.1111L137.368 17H134.854L142.81 0.857491H146.638L154.594 17H152.057L149.659 12.1111H139.766ZM140.781 10.0818H148.644L144.724 2.10277L140.781 10.0818ZM173.734 11.8575C173.288 13.7946 172.304 15.2243 170.782 16.1468C169.26 17.0538 167.308 17.5073 164.925 17.5073C163.48 17.5073 162.188 17.3152 161.051 16.9308C159.913 16.5465 158.952 16.0007 158.168 15.2935C157.384 14.5709 156.784 13.6946 156.369 12.6646C155.954 11.6345 155.747 10.4738 155.747 9.18241V8.76732C155.747 7.4298 155.954 6.23833 156.369 5.19291C156.784 4.14749 157.384 3.27118 158.168 2.56398C158.952 1.84142 159.913 1.29564 161.051 0.926673C162.188 0.542327 163.48 0.350154 164.925 0.350154C166.155 0.350154 167.269 0.473145 168.269 0.719127C169.283 0.965107 170.16 1.34177 170.897 1.8491C171.651 2.34107 172.266 2.9637 172.742 3.71702C173.219 4.47034 173.534 5.35433 173.688 6.369H171.197C171.044 5.76943 170.782 5.22366 170.413 4.73169C170.06 4.22436 169.614 3.79389 169.076 3.44029C168.553 3.07132 167.938 2.79459 167.231 2.61011C166.539 2.41025 165.77 2.31032 164.925 2.31032C163.802 2.31032 162.819 2.47943 161.973 2.81765C161.127 3.1405 160.42 3.59403 159.851 4.17824C159.283 4.76244 158.852 5.46964 158.56 6.29982C158.283 7.11464 158.145 8.014 158.145 8.99793C158.145 9.93573 158.283 10.8044 158.56 11.6038C158.852 12.4032 159.283 13.0951 159.851 13.6793C160.42 14.2635 161.127 14.7247 161.973 15.0629C162.819 15.3857 163.802 15.5472 164.925 15.5472C166.631 15.5472 168.038 15.2243 169.145 14.5786C170.267 13.9175 170.982 13.0105 171.289 11.8575H173.734ZM178.539 14.348V17H176.279V0.857491H178.539V11.6499L191.545 0.857491H194.889L188.178 6.39207L195.05 17H192.352L186.425 7.84489L178.539 14.348ZM199.618 14.348V17H197.358V0.857491H199.618V11.6499L212.624 0.857491H215.968L209.257 6.39207L216.129 17H213.431L207.504 7.84489L199.618 14.348Z" fill="white"/>
</svg>
